<?xml version="1.0" standalone="no"?>
<!DOCTYPE svg PUBLIC "-//W3C//DTD SVG 20010904//EN"
 "http://www.w3.org/TR/2001/REC-SVG-20010904/DTD/svg10.dtd">
<svg version="1.0" xmlns="http://www.w3.org/2000/svg"
 width="154.000000pt" height="82.000000pt" viewBox="0 0 154.000000 82.000000"
 preserveAspectRatio="xMidYMid meet">

<g transform="translate(0.000000,82.000000) scale(0.100000,-0.100000)"
fill="#000000" stroke="none">
<path d="M440 780 c-11 -11 -20 -29 -20 -40 0 -50 79 -79 113 -42 55 61 -35
140 -93 82z"/>
<path d="M67 750 l-27 -21 0 -200 c0 -186 1 -200 20 -219 43 -43 110 -13 110
49 0 22 6 44 15 51 12 10 18 7 32 -20 30 -55 74 -100 97 -100 12 0 32 7 44 16
35 24 29 66 -20 131 l-41 57 35 30 c47 41 60 68 49 99 -9 24 -29 37 -58 37 -8
0 -46 -30 -84 -67 l-69 -66 0 99 c0 108 -8 129 -50 139 -18 4 -34 0 -53 -15z"/>
<path d="M870 757 c-22 -11 -26 -20 -30 -86 -5 -73 -5 -73 -24 -52 -39 43
-122 45 -168 4 -37 -34 -52 -75 -52 -148 0 -94 26 -146 85 -169 50 -20 88 -14
129 21 23 19 30 21 30 9 0 -20 38 -46 67 -46 13 0 32 9 43 20 19 19 20 33 20
215 0 195 0 196 -25 220 -27 28 -39 30 -75 12z m-49 -224 c8 -9 14 -35 14 -58
0 -51 -18 -75 -56 -75 -34 0 -49 23 -49 75 0 20 5 45 10 56 13 24 62 25 81 2z"/>
<path d="M454 652 c-6 -4 -16 -17 -23 -29 -15 -29 -15 -264 1 -298 14 -32 53
-43 87 -24 26 15 26 15 29 169 3 148 2 156 -19 173 -22 18 -56 22 -75 9z"/>
<path d="M1105 649 c-48 -14 -77 -46 -73 -82 2 -24 10 -34 30 -41 22 -8 34 -5
68 18 47 31 90 29 90 -3 0 -23 -19 -31 -73 -31 -23 0 -61 -9 -84 -19 -34 -16
-44 -27 -54 -59 -14 -47 0 -83 44 -116 38 -28 107 -27 147 2 28 21 29 21 35 2
9 -27 52 -37 84 -19 26 14 26 17 29 143 3 148 -3 166 -71 197 -44 20 -120 24
-172 8z m116 -232 c-12 -32 -56 -46 -78 -24 -22 22 -3 45 40 49 43 5 48 1 38
-25z"/>
<path d="M1078 224 c6 -3 12 -16 12 -28 0 -19 -5 -23 -32 -23 -60 0 -91 -80
-47 -124 15 -15 27 -19 42 -14 12 4 33 6 47 6 l25 -1 -5 93 c-5 89 -6 92 -30
94 -14 1 -19 0 -12 -3z m12 -108 c0 -76 -61 -91 -68 -17 -4 39 12 61 44 61 22
0 24 -4 24 -44z"/>
<path d="M1170 215 c0 -8 7 -15 15 -15 8 0 15 7 15 15 0 8 -7 15 -15 15 -8 0
-15 -7 -15 -15z"/>
<path d="M730 191 c0 -11 -6 -22 -12 -25 -10 -5 -10 -7 0 -12 7 -3 12 -25 12
-54 0 -53 17 -75 50 -65 26 8 26 25 0 18 -18 -5 -20 0 -20 46 0 44 3 51 20 51
11 0 20 5 20 10 0 6 -8 10 -19 10 -10 0 -21 9 -24 20 -7 26 -27 26 -27 1z"/>
<path d="M613 170 c-35 -14 -29 -47 12 -72 39 -22 41 -41 7 -46 -15 -2 -22 2
-22 12 0 9 -4 16 -10 16 -5 0 -10 -9 -10 -19 0 -27 45 -36 76 -16 33 22 30 42
-11 66 -37 22 -47 49 -19 49 9 0 23 -8 30 -17 12 -17 13 -17 14 3 0 31 -26 40
-67 24z"/>
<path d="M1283 170 c-25 -10 -43 -39 -43 -70 0 -27 43 -70 70 -70 28 0 70 44
70 73 0 48 -53 84 -97 67z m57 -30 c26 -48 -9 -108 -47 -84 -22 13 -29 70 -12
90 17 20 47 17 59 -6z"/>
<path d="M1428 169 c-28 -16 -21 -44 17 -73 20 -15 33 -32 30 -37 -10 -15 -43
-10 -53 7 -8 15 -10 15 -15 0 -9 -24 31 -40 66 -27 37 14 34 43 -8 75 -36 28
-38 46 -5 46 10 0 20 -8 22 -17 2 -12 6 -14 11 -6 8 13 -18 43 -36 43 -7 0
-20 -5 -29 -11z"/>
<path d="M818 163 c7 -3 12 -24 12 -53 0 -70 32 -98 76 -65 18 13 17 14 -11
12 -30 -2 -30 -2 -33 56 -3 55 -4 57 -30 56 -15 0 -21 -3 -14 -6z"/>
<path d="M918 128 c5 -75 11 -88 35 -87 12 0 16 3 10 6 -9 3 -13 26 -13 64 0
50 -3 59 -18 59 -14 0 -17 -7 -14 -42z"/>
<path d="M1158 163 c7 -3 12 -25 12 -58 0 -33 -5 -55 -12 -58 -7 -3 5 -5 27
-5 22 0 34 2 28 5 -9 3 -13 26 -13 64 0 58 -1 59 -27 58 -16 0 -22 -3 -15 -6z"/>
</g>
</svg>
